<?xml version="1.0" encoding="utf-8"?>
<!-- Generator: Adobe Illustrator 25.2.1, SVG Export Plug-In . SVG Version: 6.00 Build 0)  -->
<svg version="1.1" id="eda6d43b-4e76-45d5-b6f6-9d6e5ec00d65"
	 xmlns="http://www.w3.org/2000/svg" xmlns:xlink="http://www.w3.org/1999/xlink" x="0px" y="0px" viewBox="0 0 745.6 301.6"
	 style="enable-background:new 0 0 745.6 301.6;" xml:space="preserve">
<style type="text/css">
	.st0{fill:#E2002B;}
	.st1{fill:#FFFFFF;}
</style>
<rect class="st0" width="745.6" height="301.6"/>
<g>
	<path class="st1" d="M102,152.7c0-21.6,17.3-37.7,38.9-37.7c21.2,0,37.4,15.7,37.4,36.9c0,2.2-0.1,3.7-0.3,5.5h-61.1
		c1.6,10.8,11.1,19.7,24.8,19.7c8.2,0,16-3.9,19-10.1h15c-2.9,12.5-16.6,22.9-34.7,22.9C117.8,189.9,102,174,102,152.7z
		 M140.7,128.1c-11.2,0-20.7,6.8-23.3,17h45.8C160.6,134.7,151.9,128.1,140.7,128.1L140.7,128.1z"/>
	<path class="st1" d="M192.2,196.2c0-7.5,4.6-13.2,12.8-16.6c-11.7-3-19.9-8.9-19.9-19.7c0.3-6.6,5.7-11.8,12.2-11.8
		c0.7-0.1,1.3-0.1,2,0c-1.8-2.7-2.7-6-2.6-9.2c0-13.2,11.2-21.7,30.5-23.5V97.7h15.1v17.6c20,1.6,32,10.1,32,23.6
		c0,14.5-15.1,23.3-38.9,23.3c-19.7,0-23.8-6.5-31.2-6.5c-3.2,0-5,2-5,4.2c0,9.1,14.7,10.7,35.7,11.1c24.5,0.4,41,7.2,41,23.8
		c0,14.7-16.3,23.9-42.2,23.9C207.6,218.7,192.2,210.3,192.2,196.2z M260.6,195.1c0-7.3-9.4-11.2-26.6-11.2
		c-17.3,0-26.5,3.9-26.5,11.2c0,7.2,9.2,11.1,26.5,11.1C251.3,206.2,260.6,202.3,260.6,195.1z M258.9,138.5
		c0-7.5-8.8-12.1-23.3-12.1c-14.5,0-23.3,4.6-23.3,12.1c0,7.5,8.8,12,23.3,12C250.1,150.4,258.9,146,258.9,138.5z"/>
	<path class="st1" d="M284.4,152.4c0-21.3,16.8-37.4,38.9-37.4c22.2,0,38.9,16,38.9,37.4c0,21.2-17,37.4-38.9,37.4
		C301.1,189.9,284.4,173.9,284.4,152.4z M346.7,152.4c0-13.8-9.8-23.6-23.5-23.6c-13.8,0-23.5,9.6-23.5,23.6
		c0,13.8,9.8,23.6,23.5,23.6S346.7,166.3,346.7,152.4z"/>
	<path class="st1" d="M381.2,116.4h14v10.1c5.2-7.2,13.6-11.5,22.5-11.5c15.1,0,26.5,10.4,26.5,26.9v4.3H429v-3.7
		c0-8.8-5.6-13.4-14-13.4c-10.1,0-18.7,8.9-18.7,20.4v38.9h-15.1V116.4z"/>
	<path class="st1" d="M448.7,188.4h59v13.7h-59V188.4z"/>
	<path class="st1" d="M525,116.4h14v10.4c5.4-7.5,14.1-11.9,23.3-11.8c10.9,0,19.6,4.8,24.6,12.8c5.8-8.1,15.2-12.9,25.2-12.8
		c18.7,0,31.5,12.7,31.5,32.1v41.3h-15.3v-39c0-12.5-6.9-20.6-17.7-20.6c-10.7,0-18.9,9.5-18.9,22v37.6h-15.1v-39
		c0-12.5-6.9-20.6-17.7-20.6c-10.7,0-18.9,9.5-18.9,22v37.6H525V116.4z"/>
</g>
</svg>
