<svg id="eda6d43b-4e76-45d5-b6f6-9d6e5ec00d65" data-name="AEM" xmlns="http://www.w3.org/2000/svg" viewBox="0 0 1044.62533 347.87427">
  <rect width="1044.62533" height="347.87427" style="fill: #ed1c24"/>
  <g>
    <path d="M96.86906,220.21741,123.36515,119.4176h33.12012l26.49609,100.79981h-19.584l-5.47217-22.17578h-36L116.453,220.21741Zm29.52-39.74414h27.07226l-12.24023-49.104h-2.5918Z" style="fill: #fff"/>
    <path d="M195.0756,220.21741V119.4176h43.77588a38.62747,38.62747,0,0,1,16.56006,3.312,24.80182,24.80182,0,0,1,14.832,23.61573v1.728q0,9.07179-4.31982,14.688a25.40109,25.40109,0,0,1-10.65625,8.208v2.59229q5.75829.29,8.92822,3.96,3.16552,3.67162,3.168,9.71972v32.97608H248.35588V189.97717a8.48447,8.48447,0,0,0-1.8003-5.61572q-1.80175-2.15991-5.97607-2.16016H214.0839v38.01612Zm19.0083-55.2959h22.752q6.76685,0,10.584-3.67188a12.87523,12.87523,0,0,0,3.81592-9.72021v-1.43994a13.00452,13.00452,0,0,0-3.74414-9.72022q-3.74634-3.67162-10.65576-3.67187h-22.752Z" style="fill: #fff"/>
    <path d="M307.683,220.21741v-83.52h-29.376V119.4176h77.75976v17.27979h-29.376v83.52Z" style="fill: #fff"/>
    <path d="M368.88224,210.56946a10.80075,10.80075,0,1,1,10.79981,10.94385A10.695,10.695,0,0,1,368.88224,210.56946Z" style="fill: #fff"/>
    <path d="M406.0341,184.506c0-21.59961,17.27978-37.727,38.87939-37.727,21.16748,0,37.439,15.6958,37.439,36.86328,0,2.15967-.144,3.74365-.28809,5.47168H421.00968c1.584,10.79981,11.0879,19.72754,24.76758,19.72754,8.208,0,15.98389-3.88769,19.00782-10.07959h14.97558c-2.87988,12.52783-16.55957,22.89551-34.70312,22.89551C421.87394,221.65735,406.0341,205.81751,406.0341,184.506Zm38.73535-24.62353c-11.23193,0-20.73584,6.76806-23.32764,16.9917h45.791C464.641,166.50647,456.0009,159.88245,444.76945,159.88245Z" style="fill: #fff"/>
    <path d="M496.32072,227.99329c0-7.4878,4.60791-13.24756,12.81592-16.55957-11.66358-3.02393-19.87158-8.92774-19.87158-19.72754a12.308,12.308,0,0,1,12.23974-11.80811,9.40666,9.40666,0,0,1,2.01612,0,16.44362,16.44362,0,0,1-2.59229-9.21582c0-13.24756,11.23193-21.74365,30.52783-23.47119V129.49915h15.11963V147.067c20.01563,1.584,31.96729,10.07959,31.96729,23.61523,0,14.54395-15.11963,23.32764-38.8794,23.32764-19.72754,0-23.75928-6.48-31.24707-6.48-3.168,0-5.04,2.01611-5.04,4.17627,0,9.07177,14.6875,10.65576,35.71143,11.0874,24.47949.43213,41.03906,7.2002,41.03906,23.75977,0,14.6875-16.27148,23.90332-42.19141,23.90332C511.72843,250.45667,496.32072,242.1051,496.32072,227.99329Zm68.39893-1.15186c0-7.34424-9.35987-11.23193-26.63965-11.23193-17.2793,0-26.49512,3.88769-26.49512,11.23193,0,7.19971,9.21582,11.0874,26.49512,11.0874C555.35978,237.92883,564.71965,234.04114,564.71965,226.84143Zm-1.728-56.59082c0-7.48828-8.78369-12.09619-23.32764-12.09619-14.54346,0-23.32764,4.60791-23.32764,12.09619,0,7.48779,8.78418,11.95166,23.32764,11.95166C554.20793,182.20227,562.99162,177.7384,562.99162,170.25061Z" style="fill: #fff"/>
    <path d="M588.48185,184.2179c0-21.31153,16.84766-37.439,38.8794-37.439,22.17529,0,38.8789,15.9834,38.8789,37.439,0,21.168-16.9917,37.43945-38.8789,37.43945C605.18547,221.65735,588.48185,205.67346,588.48185,184.2179Zm62.35059,0c0-13.82373-9.79151-23.61524-23.47119-23.61524-13.82373,0-23.47168,9.648-23.47168,23.61524,0,13.82373,9.792,23.61572,23.47168,23.61572S650.83244,198.04163,650.83244,184.2179Z" style="fill: #fff"/>
    <path d="M685.24992,148.21887H699.2172v10.07959a27.70129,27.70129,0,0,1,22.46387-11.51953c15.11914,0,26.49512,10.36768,26.49512,26.92725V178.026H733.05705v-3.74365c0-8.78369-5.61621-13.3916-13.96778-13.3916-10.08007,0-18.71972,8.92773-18.71972,20.44726v38.8794H685.24992Z" style="fill: #fff"/>
    <path d="M752.78459,220.21741h59.03808V233.8971H752.78459Z" style="fill: #fff"/>
    <path d="M829.103,148.21887h13.96777v10.36768a28.58258,28.58258,0,0,1,23.32715-11.80762c10.94433,0,19.584,4.75195,24.624,12.81543a30.83269,30.83269,0,0,1,25.19922-12.81543c18.71973,0,31.53516,12.67188,31.53516,32.11133v41.32715H932.49259V181.194c0-12.52734-6.9121-20.59131-17.71191-20.59131-10.65527,0-18.86328,9.50391-18.86328,22.03125v37.5835H880.79728V181.194c0-12.52734-6.91113-20.59131-17.71094-20.59131-10.65625,0-18.86425,9.50391-18.86425,22.03125v37.5835H829.103Z" style="fill: #fff"/>
  </g>
</svg>
