<?xml version="1.0" encoding="utf-8"?>
<!-- Generator: Adobe Illustrator 25.2.1, SVG Export Plug-In . SVG Version: 6.00 Build 0)  -->
<svg version="1.1" id="Слой_1" xmlns="http://www.w3.org/2000/svg" xmlns:xlink="http://www.w3.org/1999/xlink" x="0px" y="0px"
	 viewBox="0 0 2000 2000" style="enable-background:new 0 0 2000 2000;" xml:space="preserve">
<style type="text/css">
	.st0{clip-path:url(#SVGID_2_);}
	.st1{fill-rule:evenodd;clip-rule:evenodd;fill:#FF9636;filter:url(#Adobe_OpacityMaskFilter);}
	.st2{mask:url(#mask0_1_);}
	.st3{fill:url(#SVGID_3_);}
</style>
<g>
	<defs>
		<rect id="SVGID_1_" width="2000" height="2000"/>
	</defs>
	<clipPath id="SVGID_2_">
		<use xlink:href="#SVGID_1_"  style="overflow:visible;"/>
	</clipPath>
	<g class="st0">
		<defs>
			<filter id="Adobe_OpacityMaskFilter" filterUnits="userSpaceOnUse" x="-194.7" y="-358.6" width="2714.2" height="2474.1">
				<feColorMatrix  type="matrix" values="1 0 0 0 0  0 1 0 0 0  0 0 1 0 0  0 0 0 1 0"/>
			</filter>
		</defs>
		<mask maskUnits="userSpaceOnUse" x="-194.7" y="-358.6" width="2714.2" height="2474.1" id="mask0_1_">
			<path class="st1" d="M1798.5,866.9c60.1-354.9-283.9-643.3-622.9-522.1l-51.9,18.6C761.6,492.8,393.4,186.4,454.8-193.1l8.5-52.3
				l2,0.3l-8.5,52.3C395.6,185.2,762.4,490.4,1123,361.4l51.9-18.6c340.4-121.7,685.9,167.9,625.5,524.3l-21.1,124.4
				c-43.5,256.6,177.9,480.2,434.9,439.2l0.3,2c-258.4,41.2-480.9-183.5-437.2-441.5L1798.5,866.9z M1775.9,893.8
				c60.1-354.9-284-643.3-622.9-522.1l-51.9,18.6C739,519.7,370.8,213.4,432.2-166.2l8.5-52.3l2,0.3l-8.5,52.3
				C373,212.2,739.8,517.3,1100.4,388.4l51.9-18.6c340.4-121.7,685.9,167.9,625.5,524.3l-21.1,124.4
				c-43.5,256.6,177.8,480.2,434.9,439.2l0.3,2c-258.4,41.2-480.9-183.5-437.2-441.5L1775.9,893.8z M1130.4,398.7
				c338.9-121.2,683,167.2,622.9,522.1l-21.1,124.4c-43.7,258,178.8,482.7,437.2,441.5l-0.3-2c-257.1,41-478.4-182.6-434.9-439.2
				l21.1-124.4c60.4-356.4-285.2-646-625.5-524.3l-51.9,18.6c-360.6,129-727.4-176.2-666.2-554.3l8.5-52.3l-2-0.3l-8.5,52.3
				c-61.5,379.6,306.8,685.9,668.9,556.5L1130.4,398.7z M1730.7,947.7c60.1-354.9-284-643.3-622.9-522.1l-51.9,18.6
				C693.8,573.6,325.5,267.3,387-112.3l8.5-52.3l2,0.3L389-112c-61.2,378.1,305.6,683.2,666.2,554.3l51.9-18.6
				C1447.5,302,1793,591.6,1732.6,948l-21.1,124.4c-43.5,256.7,177.8,480.2,434.9,439.2l0.3,2c-258.4,41.2-480.9-183.5-437.2-441.5
				L1730.7,947.7z M1085.2,452.6c338.9-121.2,683,167.2,622.9,522.1L1687,1099c-43.7,258,178.8,482.7,437.2,441.5l-0.3-2
				c-257.1,41-478.4-182.6-434.9-439.2L1710,975c60.4-356.4-285.2-646-625.5-524.3l-51.9,18.6C671.9,598.2,305.1,293,366.4-85
				l8.5-52.3l-2-0.3l-8.5,52.3c-61.5,379.6,306.8,685.9,668.8,556.5L1085.2,452.6z M1685.4,1001.6c60.1-354.9-284-643.3-622.9-522.1
				l-51.9,18.6C648.5,627.5,280.3,321.2,341.8-58.4l8.5-52.3l2,0.3l-8.5,52.3C282.5,320,649.3,625.2,1009.9,496.2l51.9-18.6
				c340.4-121.7,685.9,167.9,625.5,524.3l-21.1,124.4c-43.5,256.6,177.9,480.2,434.9,439.2l0.3,2
				c-258.4,41.2-480.9-183.5-437.2-441.5L1685.4,1001.6z M1039.9,506.5c338.9-121.2,683,167.2,622.9,522.1l-21.1,124.4
				c-43.7,258,178.8,482.7,437.2,441.5l-0.3-2c-257.1,41-478.4-182.6-434.9-439.2l21.1-124.4c60.4-356.4-285.2-646-625.5-524.3
				l-51.9,18.6c-360.6,129-727.4-176.2-666.2-554.3l8.5-52.3l-2-0.3l-8.5,52.3C257.7,348.1,625.9,654.5,988,525L1039.9,506.5z
				 M1640.2,1055.5c60.1-354.9-283.9-643.3-622.9-522.1L965.4,552C603.3,681.4,235.1,375.1,296.5-4.5l8.5-52.3l2,0.3l-8.5,52.3
				c-61.2,378.1,305.6,683.2,666.2,554.3l51.9-18.6c340.4-121.7,685.9,167.9,625.5,524.3l-21.1,124.4
				c-43.5,256.7,177.9,480.2,434.9,439.2l0.3,2c-258.4,41.2-480.9-183.5-437.2-441.5L1640.2,1055.5z M994.7,560.4
				c338.9-121.2,683,167.2,622.9,522.1l-21.1,124.4c-43.7,258,178.8,482.7,437.2,441.5l-0.3-2c-257.1,41-478.4-182.6-434.9-439.2
				l21.1-124.4c60.4-356.4-285.2-646-625.5-524.3L942.1,577C581.5,706,214.7,400.8,275.9,22.8l8.5-52.3l-2-0.3l-8.5,52.3
				C212.5,402,580.7,708.4,942.8,578.9L994.7,560.4z M1595,1109.4c60.1-354.9-284-643.3-622.9-522.1l-51.9,18.6
				C558.1,735.3,189.9,429,251.3,49.4l8.5-52.3l2,0.3l-8.5,52.3C192.1,427.8,558.9,733,919.5,604l51.9-18.6
				c340.4-121.7,685.9,167.9,625.5,524.3l-21.1,124.4c-43.5,256.7,177.9,480.2,434.9,439.2l0.3,2
				c-258.4,41.2-480.9-183.5-437.2-441.5L1595,1109.4z M949.5,614.3c338.9-121.2,683,167.2,622.9,522.1l-21.1,124.4
				c-43.7,258,178.8,482.7,437.2,441.5l-0.3-2c-257.1,41-478.4-182.6-434.9-439.2l21.1-124.4c60.4-356.4-285.1-646-625.5-524.3
				l-51.9,18.6c-360.6,129-727.4-176.2-666.2-554.3l8.5-52.3l-2-0.3l-8.5,52.3c-61.5,379.6,306.8,685.9,668.8,556.5L949.5,614.3z
				 M1549.7,1163.3c60.1-354.9-283.9-643.3-622.9-522.1l-51.9,18.6C512.9,789.2,144.6,482.9,206.1,103.3l8.5-52.3l2,0.3l-8.5,52.3
				c-61.2,378.1,305.6,683.2,666.2,554.3l51.9-18.6c340.4-121.7,685.9,167.9,625.5,524.3l-21.1,124.4
				c-43.5,256.7,177.8,480.2,434.9,439.2l0.3,2c-258.4,41.2-480.9-183.5-437.2-441.5L1549.7,1163.3z M904.2,668.2
				c338.9-121.2,683,167.2,622.9,522.1l-21.1,124.4c-43.7,258,178.8,482.7,437.2,441.5l-0.3-2c-257.1,41-478.4-182.6-434.9-439.2
				l21.1-124.4c60.4-356.4-285.2-646-625.5-524.3l-51.9,18.6C491,813.8,124.2,508.6,185.4,130.6l8.5-52.3l-2-0.3l-8.5,52.3
				C122,509.8,490.2,816.2,852.3,686.7L904.2,668.2z M1504.5,1217.2c60.1-354.9-283.9-643.3-622.9-522.1l-51.9,18.6
				C467.6,843.1,99.4,536.8,160.9,157.2l8.5-52.3l2,0.3l-8.5,52.3C101.6,535.6,468.4,840.8,829,711.8l51.9-18.6
				c340.4-121.7,685.9,167.9,625.5,524.3l-21.1,124.4c-43.5,256.6,177.8,480.2,434.9,439.2l0.3,2
				c-258.4,41.2-480.9-183.5-437.2-441.5L1504.5,1217.2z M859,722.1c338.9-121.2,683,167.2,622.9,522.1l-21.1,124.4
				c-43.7,258,178.8,482.7,437.2,441.5l-0.3-2c-257.1,41-478.4-182.6-434.9-439.2l21.1-124.4c60.4-356.4-285.2-646-625.5-524.3
				l-51.9,18.6C445.8,867.7,79,562.6,140.2,184.5l8.5-52.3l-2-0.3l-8.5,52.3C76.8,563.7,445,870.1,807.1,740.6L859,722.1z"/>
		</mask>
		<g class="st2">
			
				<linearGradient id="SVGID_3_" gradientUnits="userSpaceOnUse" x1="-474.8846" y1="-1523.5676" x2="1243.1741" y2="29.1776" gradientTransform="matrix(1 0 0 1 702.34 1557.04)">
				<stop  offset="0" style="stop-color:#121212"/>
				<stop  offset="0.2095" style="stop-color:#5865F2"/>
				<stop  offset="0.381" style="stop-color:#E02740"/>
				<stop  offset="0.6061" style="stop-color:#F09F2B"/>
				<stop  offset="0.7737" style="stop-color:#2AA991"/>
				<stop  offset="1" style="stop-color:#121212"/>
			</linearGradient>
			<path class="st3" d="M2519.5-358.6H-194.7v2474.1h2714.2L2519.5-358.6L2519.5-358.6z"/>
		</g>
	</g>
</g>
</svg>
